<svg width="37" height="36" viewBox="0 0 37 36" fill="none" xmlns="http://www.w3.org/2000/svg">
<path d="M31.28 36H5.44C2.42435 36 0 33.6232 0 30.6667V5.33334C0 2.37682 2.42435 0 5.44 0H31.28C34.2956 0 36.72 2.37682 36.72 5.33334V30.6667C36.72 33.6232 34.2365 36 31.28 36Z" fill="#231815"/>
<path d="M18.0938 11.6523C18.0938 11.6523 21.7007 9.50735 23.8886 8.28996C26.0764 7.07256 27.3181 6.66677 28.5599 6.55083C29.8016 6.49285 31.2207 7.13054 31.2207 7.13054L27.259 4.69575C27.259 4.69575 26.7268 4.34793 25.2486 4.52184C23.7703 4.69575 23.0016 5.10155 22.0555 5.56532C21.1094 6.08706 14.7825 9.73923 14.7825 9.73923L18.0938 11.6523Z" fill="white"/>
<path d="M27.5549 10.029C27.5549 10.029 29.3879 12.5218 27.9688 16.9276C26.5497 21.3334 23.2384 23.8261 23.0018 24C22.8244 24.1739 20.7549 25.3334 20.7549 25.3334L20.814 28.8116C20.814 28.8116 27.4366 26.5507 30.2158 20.2899C32.6992 14.7826 31.1027 11.8261 29.861 10.5508C29.1514 9.79713 27.5549 10.029 27.5549 10.029Z" fill="white"/>
<path d="M18.0938 28.7536L14.7825 26.8406V9.79712L18.0938 11.6522V28.7536Z" fill="white"/>
<path d="M7.98245 23.7682L4.67114 21.7972V4.81165L7.92331 6.60875L7.98245 23.7682Z" fill="white"/>
<path d="M4.67084 21.7972C4.67084 21.7972 3.84301 28.9856 9.81519 31.5943C13.2448 33.1016 15.7874 32.232 16.97 31.0726C17.916 30.1451 18.0343 28.7538 18.0343 28.7538L14.723 26.7828C14.723 26.7828 14.723 27.4784 14.1908 28.0001C13.5995 28.6378 12.6534 29.2755 10.5248 28.232C7.80475 26.8407 7.92301 23.7683 7.92301 23.7683L4.67084 21.7972Z" fill="white"/>
<path d="M7.9238 6.60875L10.5847 5.27541L7.56902 3.65222L4.67163 4.81164L7.9238 6.60875Z" fill="white"/>
</svg>
